<svg xmlns="http://www.w3.org/2000/svg" version="1.1" xmlns:xlink="http://www.w3.org/1999/xlink" xmlns:svgjs="http://svgjs.dev/svgjs" width="100%" height="100%" viewBox="0 0 1000 600"><rect width="1000" height="600" x="0" y="0" fill="#29388e"/><g><rect width="333.3333333333333" height="333.3333333333333" rx="13.333333333333334" ry="13.333333333333334" y="175.64553498849278" fill="#55aaff" transform="matrix(0.8147393023197991,0,0,0.8147393023197991,0,21.104797225988577)" x="153.4233093261719"/><path d="M193.12569387591623 417.31219994986907L171.6971230961028 417.31219994986907L191.81617010603875 267.3122044911752L209.1971219607763 267.3122044911752L248.60188267254426 341.6574403355834L287.6197386341212 267.3122044911752L305.1792619120238 267.3122044911752L325.1197374987946 417.31219994986907L303.6911667189812 417.31219994986907L288.4828338460859 294.9610131779067L293.8399765410393 295.8241083898714L248.8399779034311 381.746724836151L202.9768840538582 295.8241083898714L208.33402674881157 294.9610131779067L193.12569387591623 417.31219994986907ZM371.8161646564714 417.31219994986907L351.45902241564863 417.31219994986907L351.45902241564863 267.3122044911752L371.8161646564714 267.3122044911752L371.8161646564714 329.24672642560813L448.1256861556958 329.24672642560813L448.1256861556958 267.3122044911752L468.48282839651847 267.3122044911752L468.48282839651847 417.31219994986907L448.1256861556958 417.31219994986907L448.1256861556958 348.53244012744017L371.8161646564714 348.53244012744017L371.8161646564714 417.31219994986907Z " fill="black" transform="matrix(0.8147393023197991,0,0,0.8147393023197991,0,21.104797225988577)"/><path d="M590.1603977317765 415.199520425166L570.0899762749115 415.199520425166L570.0899762749115 267.31220442721303L591.8622755746101 267.31220442721303L664.7495956021726 378.0222923756806L664.7495956021726 267.31220442721303L685.0254161090348 267.31220442721303L685.0254161090348 415.199520425166L667.9186095164144 415.199520425166L590.1603977317765 298.3568036982119L590.1603977317765 415.199520425166ZM757.0617972151806 417.3121963679939L757.0617972151806 417.3121963679939Q740.805929543977 417.3121963679939 729.3329254655644 410.0645441752371Q717.8599213871518 402.8462347039084 711.7859780515215 390.63966258979167Q705.7120347158914 378.43309047567493 705.7120347158914 363.4389598258825L705.7120347158914 363.4389598258825Q705.7120347158914 348.44482917609 711.7859780515215 336.2382570619733Q717.8599213871518 324.0316849478565 729.3329254655644 316.8133754765278Q740.805929543977 309.56572328377104 757.0617972151806 309.56572328377104L757.0617972151806 309.56572328377104Q773.2296367220996 309.56572328377104 784.7319835219404 316.8133754765278Q796.2636730432093 324.0316849478565 802.3376163788396 336.2382570619733Q808.4115597144698 348.44482917609 808.4115597144698 363.4389598258825L808.4115597144698 363.4389598258825Q808.4115597144698 378.43309047567493 802.3376163788396 390.63966258979167Q796.2636730432093 402.8462347039084 784.7319835219404 410.0645441752371Q773.2296367220996 417.3121963679939 757.0617972151806 417.3121963679939ZM757.0617972151806 400.4107888253707L757.0617972151806 400.4107888253707Q772.4960686863955 400.4107888253707 780.7120306862818 390.63966258979167Q788.9573354075961 380.8685363542126 788.9573354075961 363.4389598258825L788.9573354075961 363.4389598258825Q788.9573354075961 346.0093832975523 780.7120306862818 336.2382570619733Q772.4960686863955 326.4671308263942 757.0617972151806 326.4671308263942L757.0617972151806 326.4671308263942Q741.7448966296782 326.4671308263942 733.4409064655075 336.2382570619733Q725.1662590227648 346.0093832975523 725.1662590227648 363.4389598258825L725.1662590227648 363.4389598258825Q725.1662590227648 380.8685363542126 733.4409064655075 390.63966258979167Q741.7448966296782 400.4107888253707 757.0617972151806 400.4107888253707ZM879.3916028492015 417.3121963679939L862.2847962565812 417.3121963679939Q852.4549845781457 417.3121963679939 846.5277548496565 413.73238435375777Q840.6298678425951 410.12322961809343 837.930337471204 404.48942710388565Q835.2308070998129 398.8262818682498 835.2308070998129 392.60562492547876L835.2308070998129 392.60562492547876L835.2308070998129 326.4671308263942L817.4784606357728 326.4671308263942L819.1803384786065 311.6783992265989L835.2308070998129 311.6783992265989L835.2308070998129 286.12088886266696L854.2448905852639 284.2136119698362L854.2448905852639 311.6783992265989L881.5042787920295 311.6783992265989L881.5042787920295 326.4671308263942L854.2448905852639 326.4671308263942L854.2448905852639 380.9859072399253Q854.2448905852639 390.90374708264517 855.4185994423906 395.3344980182981Q856.562965578089 399.7652489539511 861.1697728423109 400.93895781107767Q865.7472373851047 402.11266666820427 876.0171898849626 402.11266666820427L876.0171898849626 402.11266666820427L880.8587389206098 402.11266666820427L879.3916028492015 417.3121963679939ZM946.5570921982719 417.3121963679939L946.5570921982719 417.3121963679939Q928.3059194699531 417.3121963679939 915.8352628629827 409.8004596823836Q903.3646062560126 402.3180657182014 896.9678929846725 389.90609455408753Q890.5711797133325 377.49412338997365 890.5711797133325 362.5880209044657L890.5711797133325 362.5880209044657Q890.5711797133325 348.12205924038017 896.5570948846782 336.09154345483245Q902.5136673345958 324.0316849478565 913.8693005272958 316.8133754765278Q925.2249337199958 309.56572328377104 941.275402341202 309.56572328377104L941.275402341202 309.56572328377104Q954.1861997695949 309.56572328377104 964.2507532194555 314.70069953369995Q974.3446493907443 319.80633306220074 980.0958227906648 329.57745929777974Q985.8763389120134 339.3485855333588 985.8763389120134 353.28637821173726L985.8763389120134 353.28637821173726Q985.8763389120134 355.51642504027785 985.7002825834443 358.09858452595637Q985.5535689763035 360.68074401163494 985.0253999905965 363.4389598258825L985.0253999905965 363.4389598258825L910.025404020206 363.4389598258825Q911.4045119273298 377.81689332568345 916.8916008343967 385.82745627557256Q922.3786897414636 393.86736194688984 930.7120226270627 397.1244040254162Q939.0746982340897 400.4107888253707 948.9045099125251 400.4107888253707L948.9045099125251 400.4107888253707Q956.0641339409974 400.4107888253707 963.8986405623175 398.9436527539624Q971.7038044622095 397.447173961126 978.6873721621128 394.2781600468842L978.6873721621128 394.2781600468842L981.210846204935 409.2722906966766Q975.1955883121611 411.91313562521145 966.5394854908524 414.6126659966027Q957.8833826695436 417.3121963679939 946.5570921982719 417.3121963679939ZM911.6979391416115 350.35210606892076L911.6979391416115 350.35210606892076L966.2167155551426 350.35210606892076Q966.2167155551426 343.0457684333076 963.4584997408949 337.6760504119533Q960.7296266480756 332.2769896691709 955.125166855296 329.3720602477826Q949.5207070625165 326.4671308263942 940.8646042412079 326.4671308263942L940.8646042412079 326.4671308263942Q928.1885485842404 326.4671308263942 921.381037212906 332.74647321202156Q914.5735258415716 339.02581559764894 911.6979391416115 350.35210606892076ZM1034.467885597055 417.3121963679939L1034.467885597055 417.3121963679939Q1020.7354919686736 417.3121963679939 1011.6979337687987 414.0258115680394Q1002.6603755689239 410.76876948951303 998.9631926689749 408.2159527252627L998.9631926689749 408.2159527252627L1001.2812676618 389.8474091112312Q1004.6556806260392 392.8110239754759 1013.2237552830634 396.5962350397092Q1021.7918299400876 400.4107888253707 1033.6169466756382 400.4107888253707L1033.6169466756382 400.4107888253707Q1043.6521574040707 400.4107888253707 1048.9925327039969 397.03637586113166Q1054.3035652824947 393.66196289689265 1054.3035652824947 387.52933411840615L1054.3035652824947 387.52933411840615Q1054.3035652824947 382.13027337562374 1050.8704668753994 378.81454585424103Q1047.4373684683042 375.4694756114302 1042.6545048755129 373.5328559971713Q1037.8422985612938 371.56689366148424 1033.6169466756382 370.42252752578577L1033.6169466756382 370.42252752578577Q1026.5453508114501 368.5152506329551 1018.9749286829838 365.61032121156666Q1011.4338492759452 362.70539179017834 1006.24018758316 356.8955329474016Q1001.0758686118029 351.0856741046249 1001.0758686118029 340.6103225547699L1001.0758686118029 340.6103225547699Q1001.0758686118029 332.68778776916525 1004.8904223974644 325.55750646212107Q1008.6756334616978 318.42722515507694 1017.243708118722 313.996474219424Q1025.7824400543182 309.56572328377104 1039.9549745041218 309.56572328377104L1039.9549745041218 309.56572328377104Q1050.3129551682641 309.56572328377104 1056.7976966038887 311.73708466945527Q1063.2824380395132 313.9084460551395 1068.0359589108757 316.314549212249L1068.0359589108757 316.314549212249L1065.717883918051 333.6560975762947Q1061.1697620966852 329.84154379063324 1055.1545042039115 327.20069886209836Q1049.1392463111374 324.5598539335635 1040.365772604116 324.5598539335635L1040.365772604116 324.5598539335635Q1031.5042707328103 324.5598539335635 1025.8998109400304 327.9049241763743Q1020.295351147251 331.220651697757 1020.295351147251 338.49764661194195L1020.295351147251 338.49764661194195Q1020.295351147251 345.80398424755515 1026.2812663185969 348.8556272760843Q1032.2378387685144 351.93661302604164 1044.385725439775 355.6337959259905L1044.385725439775 355.6337959259905Q1048.2002792254361 356.69013389740445 1053.2178845896524 358.68543895451967Q1058.2354899538686 360.68074401163494 1062.9890108252316 364.0844996973021Q1067.7425316965941 367.45891266154115 1070.8528601679795 372.8873161257517Q1073.9631886393654 378.3450623113904 1073.9631886393654 386.4729961469922L1073.9631886393654 386.4729961469922Q1073.9631886393654 393.3391929611829 1070.6768038394107 400.46947426822703Q1067.4197617608847 407.59975557527116 1058.8516871038605 412.44130461091845Q1050.3129551682641 417.3121963679939 1034.467885597055 417.3121963679939Z " fill="white" transform="matrix(0.8147393023197991,0,0,0.8147393023197991,0,21.104797225988577)"/></g></svg>